<svg xmlns="http://www.w3.org/2000/svg" xmlns:xlink="http://www.w3.org/1999/xlink" width="500" zoomAndPan="magnify" viewBox="0 0 375 374.999991" height="500" preserveAspectRatio="xMidYMid meet" version="1.2"><g id="759f095c8b"><path style=" stroke:none;fill-rule:evenodd;fill:#005aad;fill-opacity:1;" d="M 18.027344 44.976562 C 13.351562 47.414062 11.425781 50.960938 11.425781 57.144531 C 11.425781 65.851562 16.945312 76.320312 29.382812 91.210938 C 38.175781 101.738281 49.363281 111.945312 71.679688 129.800781 C 123.96875 171.640625 157.039062 194.175781 177.570312 201.960938 C 188.257812 206.015625 197.878906 203.433594 218.96875 190.855469 C 240.566406 177.972656 275.671875 152.144531 312.980469 121.683594 C 343.011719 97.164062 361.886719 73.332031 363.332031 58.109375 C 363.625 54.984375 363.335938 53.449219 361.921875 50.71875 C 357.492188 42.140625 348.3125 41.429688 334.054688 48.554688 C 327.433594 51.863281 317.582031 58.625 310.640625 64.625 L 304.632812 69.816406 L 300.402344 68.328125 C 290.898438 64.988281 277.640625 62.148438 259.25 59.515625 C 252.101562 58.488281 240.3125 57.496094 223.1875 56.472656 C 168.644531 53.210938 107.664062 57.675781 77.941406 67.109375 L 69.863281 69.671875 L 63.472656 64.335938 C 43.628906 47.765625 26.589844 40.507812 18.027344 44.976562 "/><path style=" stroke:none;fill-rule:evenodd;fill:#0cc0df;fill-opacity:1;" d="M 101.667969 285.148438 C 86.195312 302.683594 73.71875 317.324219 73.9375 317.679688 C 74.898438 319.234375 97.339844 324.574219 108.214844 325.84375 L 112.546875 326.347656 L 112.609375 318.386719 C 112.730469 302.511719 117.425781 283.484375 126.542969 261.894531 C 128.550781 257.148438 130.101562 253.265625 129.992188 253.265625 C 129.882812 253.265625 117.136719 267.613281 101.667969 285.148438 M 244.671875 253.84375 C 244.671875 254.183594 246.183594 257.902344 248.03125 262.109375 C 255.707031 279.605469 261.105469 300.84375 262.042969 317.246094 L 262.5625 326.300781 L 266.851562 325.777344 C 275.722656 324.703125 293.964844 320.644531 299.421875 318.535156 L 301.613281 317.6875 L 296.691406 312.140625 C 293.984375 309.085938 281.171875 294.582031 268.21875 279.910156 C 255.269531 265.234375 244.671875 253.507812 244.671875 253.84375 "/><path style=" stroke:none;fill-rule:evenodd;fill:#7fdbff;fill-opacity:1;" d="M 35.660156 126.859375 C 35.511719 127.386719 34.988281 130.234375 34.492188 133.191406 C 33.996094 136.144531 33.472656 139.25 33.332031 140.09375 C 33.128906 141.300781 37.050781 144.777344 51.65625 156.332031 C 61.878906 164.417969 78.015625 176.910156 87.519531 184.089844 L 104.796875 197.148438 L 110.09375 191.789062 C 114.304688 187.53125 115.152344 186.296875 114.238281 185.773438 C 107.839844 182.113281 39.269531 128.515625 38.410156 126.5 C 38 125.542969 35.957031 125.808594 35.660156 126.859375 M 330.960938 131 C 314.542969 144.699219 280.714844 171.113281 267.578125 180.492188 C 263.417969 183.460938 260.015625 186.246094 260.015625 186.679688 C 260.015625 187.117188 262.1875 189.621094 264.839844 192.25 L 269.664062 197.027344 L 278.457031 190.507812 C 291.335938 180.96875 308.253906 167.871094 325.195312 154.328125 C 333.40625 147.765625 340.429688 142.183594 340.808594 141.921875 C 341.203125 141.648438 340.972656 138.40625 340.269531 134.304688 C 339.59375 130.378906 339.042969 126.882812 339.042969 126.535156 C 339.042969 124.945312 336.605469 126.292969 330.960938 131 M 125.496094 202.550781 L 120.269531 207.84375 L 125.230469 211.382812 C 133.265625 217.117188 150.796875 227.863281 160.015625 232.710938 C 178.140625 242.234375 186.65625 243.957031 197.484375 240.289062 C 204.101562 238.046875 218.339844 230.992188 227.671875 225.332031 C 233.425781 221.84375 252.589844 209.328125 253.84375 208.242188 C 254.035156 208.074219 251.789062 205.554688 248.855469 202.636719 L 243.519531 197.335938 L 233.546875 203.496094 C 222.125 210.546875 207.617188 217.816406 199.789062 220.410156 C 192.199219 222.925781 181.917969 222.902344 174.46875 220.351562 C 164.742188 217.019531 149.34375 209.078125 136.453125 200.738281 C 133.492188 198.824219 130.992188 197.253906 130.894531 197.253906 C 130.796875 197.253906 128.367188 199.636719 125.496094 202.550781 "/><path style=" stroke:none;fill-rule:evenodd;fill:#0cc0df;fill-opacity:1;" d="M 32.625 144.515625 C 29.816406 159.992188 28.917969 204.863281 30.988281 226.382812 C 32.640625 243.582031 35.828125 263.34375 37.160156 264.675781 C 37.652344 265.167969 104.308594 197.914062 104.042969 197.199219 C 103.953125 196.953125 95.988281 190.808594 86.339844 183.539062 C 76.695312 176.269531 61.164062 164.210938 51.832031 156.742188 C 42.5 149.273438 34.460938 142.910156 33.96875 142.597656 C 33.382812 142.222656 32.925781 142.878906 32.625 144.515625 M 333.289062 148.316406 C 312.605469 164.933594 274.238281 194.515625 270.800781 196.5 C 269.851562 197.046875 276.578125 204.167969 303.34375 230.964844 C 321.902344 249.539062 337.308594 264.488281 337.585938 264.179688 C 338.335938 263.347656 341.101562 247.335938 342.449219 236 C 344.066406 222.410156 345.183594 204.558594 345.171875 192.398438 C 345.160156 177.246094 342.761719 145.414062 341.453125 143.042969 C 341.140625 142.476562 338.167969 144.394531 333.289062 148.316406 "/><path style=" stroke:none;fill-rule:evenodd;fill:#005aad;fill-opacity:1;" d="M 79.050781 249.46875 C 56.53125 272.203125 36.308594 293.058594 34.113281 295.816406 C 25.730469 306.335938 19.925781 318.984375 19.886719 326.804688 C 19.847656 335.207031 23.746094 339.1875 32.023438 339.195312 C 38.363281 339.199219 43.273438 337.699219 51.539062 333.238281 C 65.46875 325.722656 67.621094 323.671875 99.808594 287.214844 C 116.296875 268.542969 129.875 253.265625 129.988281 253.265625 C 130.097656 253.265625 128.546875 257.148438 126.539062 261.894531 C 117.167969 284.035156 112.878906 302 112.453125 320.886719 L 112.320312 326.742188 L 116.925781 327.253906 C 164.398438 332.519531 210.507812 332.496094 258.019531 327.1875 L 262.542969 326.683594 L 262.046875 317.507812 C 261.164062 301.078125 255.761719 279.726562 248.03125 262.109375 C 246.183594 257.902344 244.671875 254.183594 244.671875 253.84375 C 244.671875 253.304688 269.480469 281.113281 294.128906 309.273438 C 305.042969 321.746094 312.296875 327.722656 324.082031 333.957031 C 333.285156 338.828125 344.113281 340.582031 349.089844 338.007812 C 356.519531 334.164062 356.25 322.050781 348.410156 307.738281 C 343.46875 298.726562 336.246094 290.777344 296.242188 250.347656 L 254.261719 207.917969 L 244.359375 214.570312 C 230.695312 223.742188 222.214844 228.804688 211.773438 234.019531 C 190.421875 244.675781 183.824219 244.707031 162.960938 234.269531 C 154.269531 229.921875 139.347656 220.960938 128.605469 213.636719 C 124.058594 210.535156 120.261719 208.027344 120.164062 208.0625 C 120.070312 208.101562 101.570312 226.730469 79.050781 249.46875 "/></g></svg>